<svg xmlns="http://www.w3.org/2000/svg" viewBox="0 0 1400 280" fill="none">
  <g fill="#FFFFFF" stroke-linejoin="round" stroke-linecap="round">
    <path d="M 20 40 L 76 40 L 118 184 L 140 100 L 162 184 L 204 40 L 260 40 L 188 236 L 154 236 L 140 184 L 126 236 L 92 236 Z"></path>
    <circle cx="140" cy="252" r="13"></circle>
    <path d="M 340 40 L 400 40 L 450 200 L 500 80 L 550 200 L 600 40 L 660 40 L 580 260 L 520 260 L 500 200 L 480 260 L 420 260 Z"></path>
    <path d="M 700 40 L 780 40 Q 880 40 880 110 Q 880 160 830 175 L 900 260 L 820 260 L 760 180 L 760 260 L 700 260 Z M 760 100 L 760 150 L 790 150 Q 820 150 820 125 Q 820 100 790 100 Z"></path>
    <path d="M 1000 40 L 1060 40 L 1150 260 L 1085 260 L 1070 220 L 990 220 L 975 260 L 910 260 Z M 1010 170 L 1050 170 L 1030 110 Z"></path>
    <circle cx="1030" cy="195" r="14"></circle>
    <path d="M 1170 40 L 1250 40 Q 1340 40 1340 115 Q 1340 190 1250 190 L 1230 190 L 1230 260 L 1170 260 Z M 1230 100 L 1230 140 L 1255 140 Q 1280 140 1280 120 Q 1280 100 1255 100 Z"></path>
  </g>
</svg>