<svg xmlns="http://www.w3.org/2000/svg" viewBox="0 0 1000 280" fill="none">
  <g fill="#FFFFFF" stroke-linejoin="round" stroke-linecap="round">
    <path d="M 20 40 L 80 40 L 130 200 L 180 80 L 230 200 L 280 40 L 340 40 L 260 260 L 200 260 L 180 200 L 160 260 L 100 260 Z"></path>
    <path d="M 380 40 L 460 40 Q 560 40 560 110 Q 560 160 510 175 L 580 260 L 500 260 L 440 180 L 440 260 L 380 260 Z M 440 100 L 440 150 L 470 150 Q 500 150 500 125 Q 500 100 470 100 Z"></path>
    <path d="M 680 40 L 740 40 L 830 260 L 765 260 L 750 220 L 670 220 L 655 260 L 590 260 Z M 690 170 L 730 170 L 710 110 Z"></path>
    <circle cx="710" cy="195" r="14"></circle>
    <path d="M 850 40 L 930 40 Q 1020 40 1020 115 Q 1020 190 930 190 L 910 190 L 910 260 L 850 260 Z M 910 100 L 910 140 L 935 140 Q 960 140 960 120 Q 960 100 935 100 Z"></path>
  </g>
</svg>